<mxfile host="app.diagrams.net" agent="Mozilla/5.0 (Windows NT 10.0; Win64; x64) AppleWebKit/537.36 (KHTML, like Gecko) Chrome/126.0.0.0 Safari/537.36" version="24.7.16">
  <diagram name="Page-1" id="BXqrSRAVh3xnv1fdek1u">
    <mxGraphModel dx="1195" dy="615" grid="1" gridSize="10" guides="1" tooltips="1" connect="1" arrows="1" fold="1" page="1" pageScale="1" pageWidth="850" pageHeight="1100" math="0" shadow="0">
      <root>
        <mxCell id="0" />
        <mxCell id="1" parent="0" />
        <mxCell id="6jeEO0FnrRtDvutKkgK3-8" style="edgeStyle=orthogonalEdgeStyle;rounded=0;orthogonalLoop=1;jettySize=auto;html=1;entryX=0;entryY=0.5;entryDx=0;entryDy=0;" edge="1" parent="1">
          <mxGeometry relative="1" as="geometry">
            <mxPoint x="260" y="139.5" as="sourcePoint" />
            <mxPoint x="380" y="139.5" as="targetPoint" />
          </mxGeometry>
        </mxCell>
        <mxCell id="6jeEO0FnrRtDvutKkgK3-21" value="1" style="edgeLabel;html=1;align=center;verticalAlign=middle;resizable=0;points=[];" vertex="1" connectable="0" parent="6jeEO0FnrRtDvutKkgK3-8">
          <mxGeometry x="-0.7494" y="-1" relative="1" as="geometry">
            <mxPoint as="offset" />
          </mxGeometry>
        </mxCell>
        <mxCell id="6jeEO0FnrRtDvutKkgK3-29" value="TS1 &amp;amp; confirm" style="edgeLabel;html=1;align=center;verticalAlign=middle;resizable=0;points=[];" vertex="1" connectable="0" parent="6jeEO0FnrRtDvutKkgK3-8">
          <mxGeometry x="-0.2405" y="-1" relative="1" as="geometry">
            <mxPoint x="14" as="offset" />
          </mxGeometry>
        </mxCell>
        <mxCell id="6jeEO0FnrRtDvutKkgK3-11" style="edgeStyle=orthogonalEdgeStyle;rounded=0;orthogonalLoop=1;jettySize=auto;html=1;exitX=0.75;exitY=0;exitDx=0;exitDy=0;entryX=0.75;entryY=0;entryDx=0;entryDy=0;" edge="1" parent="1" source="6jeEO0FnrRtDvutKkgK3-1" target="6jeEO0FnrRtDvutKkgK3-5">
          <mxGeometry relative="1" as="geometry" />
        </mxCell>
        <mxCell id="6jeEO0FnrRtDvutKkgK3-24" value="4" style="edgeLabel;html=1;align=center;verticalAlign=middle;resizable=0;points=[];" vertex="1" connectable="0" parent="6jeEO0FnrRtDvutKkgK3-11">
          <mxGeometry x="-0.8304" y="2" relative="1" as="geometry">
            <mxPoint as="offset" />
          </mxGeometry>
        </mxCell>
        <mxCell id="6jeEO0FnrRtDvutKkgK3-14" style="edgeStyle=orthogonalEdgeStyle;rounded=0;orthogonalLoop=1;jettySize=auto;html=1;exitX=1;exitY=0.75;exitDx=0;exitDy=0;entryX=0;entryY=0.75;entryDx=0;entryDy=0;" edge="1" parent="1" source="6jeEO0FnrRtDvutKkgK3-1" target="6jeEO0FnrRtDvutKkgK3-2">
          <mxGeometry relative="1" as="geometry" />
        </mxCell>
        <mxCell id="6jeEO0FnrRtDvutKkgK3-27" value="6" style="edgeLabel;html=1;align=center;verticalAlign=middle;resizable=0;points=[];" vertex="1" connectable="0" parent="6jeEO0FnrRtDvutKkgK3-14">
          <mxGeometry x="-0.7379" relative="1" as="geometry">
            <mxPoint as="offset" />
          </mxGeometry>
        </mxCell>
        <mxCell id="6jeEO0FnrRtDvutKkgK3-1" value="&lt;div style=&quot;color: rgb(171, 178, 191); font-family: Consolas, &amp;quot;Courier New&amp;quot;, monospace; font-size: 14px; line-height: 19px; white-space: pre;&quot;&gt;Recovery&lt;/div&gt;&lt;div style=&quot;color: rgb(171, 178, 191); font-family: Consolas, &amp;quot;Courier New&amp;quot;, monospace; font-size: 14px; line-height: 19px; white-space: pre;&quot;&gt;.RcvrLock&lt;/div&gt;" style="rounded=1;whiteSpace=wrap;html=1;shadow=0;labelBackgroundColor=default;" vertex="1" parent="1">
          <mxGeometry x="140" y="120" width="120" height="60" as="geometry" />
        </mxCell>
        <mxCell id="6jeEO0FnrRtDvutKkgK3-9" style="edgeStyle=orthogonalEdgeStyle;rounded=0;orthogonalLoop=1;jettySize=auto;html=1;exitX=0.5;exitY=1;exitDx=0;exitDy=0;entryX=1;entryY=0.5;entryDx=0;entryDy=0;" edge="1" parent="1" source="6jeEO0FnrRtDvutKkgK3-2" target="6jeEO0FnrRtDvutKkgK3-4">
          <mxGeometry relative="1" as="geometry">
            <Array as="points">
              <mxPoint x="440" y="290" />
            </Array>
          </mxGeometry>
        </mxCell>
        <mxCell id="6jeEO0FnrRtDvutKkgK3-22" value="2" style="edgeLabel;html=1;align=center;verticalAlign=middle;resizable=0;points=[];" vertex="1" connectable="0" parent="6jeEO0FnrRtDvutKkgK3-9">
          <mxGeometry x="-0.9115" y="-2" relative="1" as="geometry">
            <mxPoint as="offset" />
          </mxGeometry>
        </mxCell>
        <mxCell id="6jeEO0FnrRtDvutKkgK3-17" style="edgeStyle=orthogonalEdgeStyle;rounded=0;orthogonalLoop=1;jettySize=auto;html=1;exitX=1;exitY=0.75;exitDx=0;exitDy=0;entryX=0;entryY=0.5;entryDx=0;entryDy=0;" edge="1" parent="1" source="6jeEO0FnrRtDvutKkgK3-2" target="6jeEO0FnrRtDvutKkgK3-6">
          <mxGeometry relative="1" as="geometry" />
        </mxCell>
        <mxCell id="6jeEO0FnrRtDvutKkgK3-28" value="7" style="edgeLabel;html=1;align=center;verticalAlign=middle;resizable=0;points=[];" vertex="1" connectable="0" parent="6jeEO0FnrRtDvutKkgK3-17">
          <mxGeometry x="-0.8046" y="-3" relative="1" as="geometry">
            <mxPoint as="offset" />
          </mxGeometry>
        </mxCell>
        <mxCell id="6jeEO0FnrRtDvutKkgK3-31" value="speed change bit cleared" style="edgeLabel;html=1;align=center;verticalAlign=middle;resizable=0;points=[];" vertex="1" connectable="0" parent="6jeEO0FnrRtDvutKkgK3-17">
          <mxGeometry x="-0.2573" relative="1" as="geometry">
            <mxPoint x="35" as="offset" />
          </mxGeometry>
        </mxCell>
        <mxCell id="6jeEO0FnrRtDvutKkgK3-2" value="&lt;div style=&quot;color: rgb(171, 178, 191); font-family: Consolas, &amp;quot;Courier New&amp;quot;, monospace; font-size: 14px; line-height: 19px; white-space: pre;&quot;&gt;Recovery&lt;/div&gt;&lt;div style=&quot;color: rgb(171, 178, 191); font-family: Consolas, &amp;quot;Courier New&amp;quot;, monospace; font-size: 14px; line-height: 19px; white-space: pre;&quot;&gt;.RcvrCfg&lt;/div&gt;" style="rounded=1;whiteSpace=wrap;html=1;labelBackgroundColor=default;" vertex="1" parent="1">
          <mxGeometry x="380" y="120" width="120" height="60" as="geometry" />
        </mxCell>
        <mxCell id="6jeEO0FnrRtDvutKkgK3-10" style="edgeStyle=orthogonalEdgeStyle;rounded=0;orthogonalLoop=1;jettySize=auto;html=1;exitX=0.75;exitY=0;exitDx=0;exitDy=0;entryX=0.75;entryY=1;entryDx=0;entryDy=0;" edge="1" parent="1" source="6jeEO0FnrRtDvutKkgK3-4" target="6jeEO0FnrRtDvutKkgK3-1">
          <mxGeometry relative="1" as="geometry" />
        </mxCell>
        <mxCell id="6jeEO0FnrRtDvutKkgK3-23" value="3" style="edgeLabel;html=1;align=center;verticalAlign=middle;resizable=0;points=[];" vertex="1" connectable="0" parent="6jeEO0FnrRtDvutKkgK3-10">
          <mxGeometry x="-0.6828" y="2" relative="1" as="geometry">
            <mxPoint as="offset" />
          </mxGeometry>
        </mxCell>
        <mxCell id="6jeEO0FnrRtDvutKkgK3-30" value="change to higher speed" style="edgeLabel;html=1;align=center;verticalAlign=middle;resizable=0;points=[];" vertex="1" connectable="0" parent="6jeEO0FnrRtDvutKkgK3-10">
          <mxGeometry x="0.0214" relative="1" as="geometry">
            <mxPoint as="offset" />
          </mxGeometry>
        </mxCell>
        <mxCell id="6jeEO0FnrRtDvutKkgK3-4" value="&lt;div style=&quot;color: rgb(171, 178, 191); font-family: Consolas, &amp;quot;Courier New&amp;quot;, monospace; font-size: 14px; line-height: 19px; white-space: pre;&quot;&gt;Recovery&lt;/div&gt;&lt;div style=&quot;color: rgb(171, 178, 191); font-family: Consolas, &amp;quot;Courier New&amp;quot;, monospace; font-size: 14px; line-height: 19px; white-space: pre;&quot;&gt;.Speed&lt;/div&gt;" style="rounded=1;whiteSpace=wrap;html=1;labelBackgroundColor=default;" vertex="1" parent="1">
          <mxGeometry x="140" y="260" width="120" height="60" as="geometry" />
        </mxCell>
        <mxCell id="6jeEO0FnrRtDvutKkgK3-13" style="edgeStyle=orthogonalEdgeStyle;rounded=0;orthogonalLoop=1;jettySize=auto;html=1;entryX=0;entryY=0.75;entryDx=0;entryDy=0;" edge="1" parent="1" source="6jeEO0FnrRtDvutKkgK3-5" target="6jeEO0FnrRtDvutKkgK3-1">
          <mxGeometry relative="1" as="geometry" />
        </mxCell>
        <mxCell id="6jeEO0FnrRtDvutKkgK3-25" value="5" style="edgeLabel;html=1;align=center;verticalAlign=middle;resizable=0;points=[];" vertex="1" connectable="0" parent="6jeEO0FnrRtDvutKkgK3-13">
          <mxGeometry x="-0.9043" relative="1" as="geometry">
            <mxPoint as="offset" />
          </mxGeometry>
        </mxCell>
        <mxCell id="6jeEO0FnrRtDvutKkgK3-5" value="&lt;div style=&quot;color: rgb(171, 178, 191); font-family: Consolas, &amp;quot;Courier New&amp;quot;, monospace; font-size: 14px; line-height: 19px; white-space: pre;&quot;&gt;Recovery&lt;/div&gt;&lt;div style=&quot;color: rgb(171, 178, 191); font-family: Consolas, &amp;quot;Courier New&amp;quot;, monospace; font-size: 14px; line-height: 19px; white-space: pre;&quot;&gt;.Equalization&lt;/div&gt;" style="rounded=1;whiteSpace=wrap;html=1;labelBackgroundColor=default;" vertex="1" parent="1">
          <mxGeometry x="460" y="330" width="120" height="60" as="geometry" />
        </mxCell>
        <mxCell id="6jeEO0FnrRtDvutKkgK3-6" value="&lt;div style=&quot;color: rgb(171, 178, 191); font-family: Consolas, &amp;quot;Courier New&amp;quot;, monospace; font-size: 14px; line-height: 19px; white-space: pre;&quot;&gt;Recovery&lt;/div&gt;&lt;div style=&quot;color: rgb(171, 178, 191); font-family: Consolas, &amp;quot;Courier New&amp;quot;, monospace; font-size: 14px; line-height: 19px; white-space: pre;&quot;&gt;.Idle&lt;/div&gt;" style="rounded=1;whiteSpace=wrap;html=1;labelBackgroundColor=default;" vertex="1" parent="1">
          <mxGeometry x="690" y="120" width="120" height="60" as="geometry" />
        </mxCell>
        <mxCell id="6jeEO0FnrRtDvutKkgK3-19" value="" style="endArrow=classic;html=1;rounded=0;entryX=0;entryY=0.25;entryDx=0;entryDy=0;" edge="1" parent="1" target="6jeEO0FnrRtDvutKkgK3-1">
          <mxGeometry width="50" height="50" relative="1" as="geometry">
            <mxPoint x="30" y="135" as="sourcePoint" />
            <mxPoint x="100" y="140" as="targetPoint" />
          </mxGeometry>
        </mxCell>
        <mxCell id="6jeEO0FnrRtDvutKkgK3-20" value="Entry" style="edgeLabel;html=1;align=center;verticalAlign=middle;resizable=0;points=[];" vertex="1" connectable="0" parent="6jeEO0FnrRtDvutKkgK3-19">
          <mxGeometry x="-0.3266" y="-2" relative="1" as="geometry">
            <mxPoint as="offset" />
          </mxGeometry>
        </mxCell>
      </root>
    </mxGraphModel>
  </diagram>
</mxfile>
